<svg width="1440" height="629" viewBox="0 0 1440 629" xmlns="http://www.w3.org/2000/svg"><title>footer copy</title><defs><radialGradient cx="50.435%" cy="40.021%" fx="50.435%" fy="40.021%" r="40.997%" id="a"><stop stop-color="#0B1E39" offset="0%"/><stop stop-color="#1D3657" offset="100%"/></radialGradient><linearGradient x1="67.14%" y1="88.582%" x2="-15.229%" y2="-69.513%" id="b"><stop stop-color="#1D3657" offset="0%"/><stop stop-color="#15517B" offset="100%"/></linearGradient><filter x="-50%" y="-50%" width="200%" height="200%" filterUnits="objectBoundingBox" id="c"><feOffset dy="8" in="SourceAlpha" result="shadowOffsetOuter1"/><feGaussianBlur stdDeviation="9" in="shadowOffsetOuter1" result="shadowBlurOuter1"/><feColorMatrix values="0 0 0 0 0 0 0 0 0 0 0 0 0 0 0 0 0 0 0.35 0" in="shadowBlurOuter1" result="shadowMatrixOuter1"/><feMerge><feMergeNode in="shadowMatrixOuter1"/><feMergeNode in="SourceGraphic"/></feMerge></filter></defs><g fill="none" fill-rule="evenodd"><path fill="url(#a)" d="M0 0h1440v629H0z"/><path fill="#1D3657" d="M1035.057 37l152.057 152.056-152.057 152.057L883 189.056zM419.943 49.057l138.5 138.5-138.5 138.5-138.5-138.5 138.5-138.5zM276.5-93L415 45.5 276.5 184 138 45.5 276.5-93zm76.25 360.25L415 329.5l-62.25 62.25-62.25-62.25 62.25-62.25zM127.875 42.625L348.5 263.25 127.875 483.875-92.75 263.25 127.875 42.625zM286.25 334l62.25 62.25-62.25 62.25L224 396.25 286.25 334zm434.807-849.171l429.057 429.057-429.057 429.057L292-86.114zM992.886 306l262.057 262.057-269.885 269.886L723 575.885zm-545.771 0l152.057 152.057-152.057 152.057-152.057-152.057zM1190-117l150.529 150.529-150.53 150.529-150.528-150.53zM602.443 463l152.443 152.442-152.443 152.443L450 615.442z"/><path fill="#1D3657" d="M-85.114-284L184.772-14.114-85.114 255.772-355-14.114zm222 594l269.886 269.886-269.886 269.886L-133 579.886zm1172-235.048l269.886 269.886-269.886 269.886L1039 344.838zm305 287l269.886 269.886-269.886 269.886L1344 631.838z"/><path stroke-opacity=".159" stroke="#46AEDA" fill="url(#b)" filter="url(#c)" transform="rotate(45 719.886 283.114)" d="M529.048 92.276h381.676v381.676H529.048z"/></g></svg>