<svg width="1440" height="512" viewBox="0 0 1440 512" xmlns="http://www.w3.org/2000/svg" xmlns:xlink="http://www.w3.org/1999/xlink"><title>header-background</title><defs><linearGradient x1="-7.336%" y1="-28.154%" x2="88.837%" y2="106.704%" id="b"><stop stop-color="#4A2AB3" offset="0%"/><stop stop-color="#22A9E9" offset="100%"/></linearGradient><path id="a" d="M0 0h1440v369.227L0 511.64z"/></defs><g fill="none" fill-rule="evenodd"><mask id="c" fill="#fff"><use xlink:href="#a"/></mask><use fill="url(#b)" xlink:href="#a"/><path d="M146.49-170C-61.651-170-231-.66-231 207.49-231 415.666-61.652 585 146.49 585 354.629 585 524 415.665 524 207.49 523.994-.66 354.628-170 146.49-170zm0 737.697c-198.598 0-360.181-161.59-360.181-360.206 0-198.605 161.577-360.182 360.182-360.182 198.592 0 360.163 161.577 360.163 360.182 0 198.617-161.571 360.206-360.163 360.206zM-177 207.717C-177 335.825-102.309 446.537 6 499L-148.888 76C-166.904 116.252-177 160.796-177 207.717zm541.932-16.103c0-40.039-14.368-67.767-26.692-89.35-16.407-26.686-31.785-49.286-31.785-75.972 0-29.782 22.565-57.504 54.35-57.504 1.436 0 2.797.179 4.195.26C307.416-83.76 230.696-116 146.431-116 33.357-116-66.126-57.93-124 30.027c7.594.229 14.75.389 20.829.389 33.855 0 86.26-4.112 86.26-4.112 17.447-1.03 19.504 24.622 2.075 26.687 0 0-17.534 2.065-37.045 3.088L65.986 407l70.832-212.636L86.39 56.067c-17.43-1.024-33.941-3.089-33.941-3.089-17.442-1.023-15.397-27.716 2.044-26.686 0 0 53.452 4.112 85.256 4.112 33.849 0 86.26-4.112 86.26-4.112 17.46-1.03 19.51 24.621 2.075 26.686 0 0-17.57 2.065-37.045 3.089L308.007 404.33l32.284-107.986c13.993-44.81 24.641-76.996 24.641-104.73zM152.152 236L55 518.786C84.008 527.328 114.685 532 146.472 532c37.707 0 73.868-6.53 107.528-18.386a28.5 28.5 0 0 1-2.304-4.468L152.153 236zM430.338 52c1.392 10.308 2.18 21.374 2.18 33.277 0 32.84-6.135 69.757-24.618 115.917L309 487c96.256-56.105 161-160.34 161-279.729.006-56.264-14.373-109.173-39.663-155.271z" fill="#1FA2FF" opacity=".279" mask="url(#c)"/><g mask="url(#c)"><path d="M782.822 389.755c-11.7 7.749-25.73 12.261-40.814 12.261-40.873 0-74.008-33.134-74.008-74.008C668 287.134 701.135 254 742.008 254c40.874 0 74.008 33.134 74.008 74.008 0 15.084-4.512 29.114-12.261 40.814l56.568 56.568a3.007 3.007 0 0 1 .003 4.248l-16.688 16.688a3.001 3.001 0 0 1-4.248-.003l-56.568-56.568zm-40.814 4.86c36.786 0 66.608-29.82 66.608-66.607 0-36.786-29.822-66.607-66.608-66.607s-66.607 29.82-66.607 66.607c0 36.786 29.821 66.607 66.607 66.607zm47.876-8.265a.99.99 0 0 1 .003-1.403l9.06-9.06a.999.999 0 0 1 1.403-.003l50.932 50.931a.99.99 0 0 1-.003 1.403l-9.06 9.06a.999.999 0 0 1-1.404.003l-50.931-50.93zm-47.876-113.848c-30.655 0-55.506 24.85-55.506 55.506a3.7 3.7 0 1 0 7.4 0c0-26.568 21.538-48.105 48.106-48.105a3.7 3.7 0 1 0 0-7.401z" fill="#21C1EA" opacity=".218"/><path d="M843.001 214.999c-8.836 0-16-7.163-16-16 0-8.836 7.164-15.999 16-15.999s16 7.163 16 16c0 8.836-7.164 15.999-16 15.999zm0-5.76c-5.655 0-10.24-4.584-10.24-10.24 0-5.655 4.585-10.24 10.24-10.24s10.24 4.585 10.24 10.24c0 5.656-4.585 10.24-10.24 10.24zm-12.157 6.564a3.286 3.286 0 0 0-4.646-4.646l-6.238 6.238a3.286 3.286 0 0 0 4.645 4.646l6.239-6.238z" fill="#2B9EE7" opacity=".339"/><path d="M789.907 101.114l12.65-21.91a1.999 1.999 0 0 0-.728-2.722l-9.953-5.746a1.998 1.998 0 0 0-2.721.731l-12.65 21.91 13.402 7.737zm-1.466 2.54l-4.565 7.906a1.998 1.998 0 0 1-2.721.731l-9.953-5.746a1.999 1.999 0 0 1-.728-2.723l4.565-7.905 13.402 7.737zm9.132-45.777a48.073 48.073 0 0 1-16.5-25.23C774.17 6.883 789.46-19.597 815.225-26.5c25.764-6.904 52.247 8.384 59.15 34.146 6.902 25.762-8.388 52.243-34.152 59.147a48.083 48.083 0 0 1-30.103-1.673l-4.578 7.929 1.104.637a3.997 3.997 0 0 1 1.46 5.456l-21.193 36.708a4.002 4.002 0 0 1-5.456 1.463l-14.756-8.52a3.997 3.997 0 0 1-1.46-5.455l21.193-36.708a4.002 4.002 0 0 1 5.455-1.464l1.106.639 4.578-7.928zm8.247-.188c-9.552-5.572-16.994-14.768-20.082-26.293-6.213-23.185 7.549-47.018 30.737-53.231 23.188-6.214 47.022 7.545 53.234 30.731 6.213 23.186-7.548 47.019-30.736 53.232-11.528 3.089-23.215 1.242-32.817-4.246l-.336-.193zm-5.04 4.183l4.229 2.442-3.678 6.37a.997.997 0 0 1-1.361.357l-2.497-1.441a.999.999 0 0 1-.371-1.358l3.677-6.37zm-8.044-32.35c5.177 19.321 25.038 30.787 44.362 25.61 19.323-5.179 30.791-25.04 25.614-44.36-5.177-19.322-25.039-30.788-44.362-25.61-19.324 5.177-30.792 25.038-25.614 44.36zm4.082-1.094c4.573 17.067 22.117 27.195 39.186 22.622 17.07-4.574 27.2-22.118 22.626-39.185-4.573-17.067-22.118-27.195-39.187-22.622-17.069 4.574-27.199 22.117-22.625 39.185z" fill="#22BFE9" opacity=".214"/><path d="M646.408 125.087a42.984 42.984 0 0 0 13.142 18.07c18.534 15.01 45.725 12.152 60.734-6.382 15.008-18.534 12.15-45.725-6.384-60.734-18.534-15.008-45.726-12.15-60.734 6.383a42.982 42.982 0 0 0-9.097 20.408l-37.058 3.895a5 5 0 0 0-4.443 5.489l1.295 12.32a4.992 4.992 0 0 0 5.487 4.446l37.058-3.895zm15.86 14.715c-16.681-13.508-19.254-37.98-5.746-54.66 13.507-16.68 37.98-19.253 54.66-5.745s19.253 37.98 5.746 54.66c-13.508 16.68-37.98 19.253-54.66 5.745zm8.152-10.067c-11.12-9.006-12.835-25.32-3.83-36.44 9.005-11.12 25.32-12.836 36.44-3.83 11.12 9.005 12.835 25.32 3.83 36.44-9.005 11.12-25.32 12.835-36.44 3.83zm2.717-3.356c-9.267-7.505-10.696-21.1-3.192-30.367 7.505-9.267 21.1-10.696 30.367-3.192 9.267 7.505 10.696 21.1 3.192 30.367s-21.1 10.696-30.367 3.192zm-28.809-5.367l-1.446-13.762-31.675 3.33a5.004 5.004 0 0 0-4.46 5.491l.403 3.826a4.998 4.998 0 0 0 5.504 4.444l31.674-3.329z" fill="#21C9EB" opacity=".208"/><path d="M600.714 54.213a18.76 18.76 0 0 1-10.277-7.531c-5.817-8.625-3.541-20.332 5.083-26.149s20.332-3.542 26.149 5.083c5.817 8.624 3.541 20.331-5.083 26.149a18.76 18.76 0 0 1-12.35 3.133l-3.27 16.818a1.786 1.786 0 0 1-2.101 1.413 1.793 1.793 0 0 1-1.42-2.097l3.27-16.819zm-7.302-9.537c4.709 6.981 14.186 8.823 21.168 4.114 6.981-4.709 8.823-14.186 4.114-21.168-4.709-6.982-14.186-8.824-21.168-4.115-6.981 4.71-8.824 14.187-4.114 21.169z" fill="#21C6EA" opacity=".226"/></g></g></svg>